<svg width="69" height="39" viewBox="0 0 69 39" fill="none" xmlns="http://www.w3.org/2000/svg">
<path d="M24.0945 38.5749L10.687 36.5484L10.3213 33.1665L24.0945 38.5749Z" fill="#2E7D32"/>
<path d="M9.96523 29.4056L10.321 33.1665L0 22.8713L9.96523 29.4056Z" fill="#66BB6A"/>
<path d="M7.62717 24.9074L5.96382 26.7818L4.21252 23.6741L4.34694 11.752L7.62717 24.9074Z" fill="#388E3C"/>
<path d="M16.9092 33.9091L5.96356 26.7818L7.6269 24.9074L16.9092 33.9091Z" fill="#2E7D32"/>
<path d="M7.67841 14.1102L11.1909 13.7853L14.0007 3.52963L7.67841 14.1102Z" fill="#43A047"/>
<path d="M15.7599 6.87808L18.2109 8.33139L26.8785 0L15.7599 6.87808Z" fill="#388E3C"/>
<path d="M7.08428 29.9385L6.0584 33.5765L0 22.8713L7.08428 29.9385Z" fill="#43A047"/>
<path d="M24.0942 38.575L10.321 33.1665L9.95831 29.3902L24.0942 38.575Z" fill="#81C784"/>
<path d="M10.3209 33.1666L10.6866 36.5485L6.05831 33.5765L4.5274 30.8719L7.08419 29.9385L10.3209 33.1666Z" fill="#388E3C"/>
<path d="M10.1581 22.0557L7.62704 24.9074L6.54384 20.9634L4.3468 11.752L10.1581 22.0557Z" fill="#66BB6A"/>
<path d="M16.9088 33.9091L7.62653 24.9073L10.1576 22.0557L16.9088 33.9091Z" fill="#43A047"/>
<path d="M10.4509 16.4865L13.8349 15.9201L14.0009 3.52963L10.4509 16.4865Z" fill="#81C784"/>
<path d="M10.4509 16.4865L13.7103 28.2935L13.8349 15.9201L10.4509 16.4865Z" fill="#388E3C"/>
<path d="M7.67792 14.1102L7.62653 17.5943L8.50415 19.1241L10.8228 17.8358L10.4502 16.4865L11.1904 13.7853L7.67792 14.1102Z" fill="#388E3C"/>
<path d="M7.62653 17.5944L13.7096 28.2936L10.4502 16.4866L7.62653 17.5944Z" fill="#2E7D32"/>
<path d="M18.2109 8.33139L20.3931 10.8461L26.8785 0L18.2109 8.33139Z" fill="#66BB6A"/>
<path d="M13.8344 10.0082L13.865 15.2336L18.2106 8.33145L15.7596 6.87814" fill="#43A047"/>
<path d="M13.8655 15.2335L13.7755 21.8417L20.3982 10.8994L18.2111 8.33136" fill="#388E3C"/>
<path d="M44.0873 38.5802L57.4949 36.5536L57.8596 33.1718L44.0873 38.5802Z" fill="#2E7D32"/>
<path d="M58.2149 29.4109L57.8591 33.1718L68.1801 22.8766L58.2149 29.4109Z" fill="#66BB6A"/>
<path d="M60.5536 24.9116L62.2179 26.7869L63.9692 23.6792L63.8338 11.7562L60.5536 24.9116Z" fill="#388E3C"/>
<path d="M51.272 33.9143L62.2176 26.787L60.5533 24.9117L51.272 33.9143Z" fill="#2E7D32"/>
<path d="M60.5018 14.1154L56.9903 13.7905L54.1805 3.53397L60.5018 14.1154Z" fill="#43A047"/>
<path d="M52.4217 6.88314L49.9707 8.33645L41.3032 0.00506592L52.4217 6.88314Z" fill="#388E3C"/>
<path d="M61.0955 29.9429L62.1223 33.5817L68.1797 22.8766L61.0955 29.9429Z" fill="#43A047"/>
<path d="M44.0873 38.5802L57.8596 33.1718L58.2223 29.3954L44.0873 38.5802Z" fill="#81C784"/>
<path d="M57.8594 33.1718L57.4947 36.5537L62.123 33.5817L63.6529 30.8771L61.0961 29.9429L57.8594 33.1718Z" fill="#388E3C"/>
<path d="M58.0234 22.0609L60.5535 24.9116L61.6377 20.9685L63.8337 11.7562L58.0234 22.0609Z" fill="#66BB6A"/>
<path d="M51.272 33.9143L60.5533 24.9117L58.0232 22.0609L51.272 33.9143Z" fill="#43A047"/>
<path d="M57.7295 16.4917L54.3465 15.9253L54.1805 3.53397L57.7295 16.4917Z" fill="#81C784"/>
<path d="M57.7295 16.4918L54.47 28.2987L54.3465 15.9254L57.7295 16.4918Z" fill="#388E3C"/>
<path d="M60.5021 14.1154L60.5535 17.5996L59.6768 19.1285L57.3572 17.8411L57.7298 16.4917L56.9905 13.7905L60.5021 14.1154Z" fill="#388E3C"/>
<path d="M60.5535 17.5996L54.4705 28.2987L57.7299 16.4918L60.5535 17.5996Z" fill="#2E7D32"/>
<path d="M49.9707 8.33645L47.7875 10.8512L41.3032 0.00506592L49.9707 8.33645Z" fill="#66BB6A"/>
<path d="M54.3468 10.0133L54.3152 15.2387L49.9705 8.33652L52.4215 6.88321" fill="#43A047"/>
<path d="M54.3155 15.2387L54.4064 21.8461L47.7827 10.9046L49.9708 8.33658" fill="#388E3C"/>
<mask id="path-37-inside-1" fill="white">
<path d="M45.4328 33.4476C43.6538 32.6483 42.8543 31.6023 42.8375 30.0562V24.8764C42.8375 24.3246 42.9976 23.919 43.3317 23.5993C43.6657 23.2795 44.2211 23.0389 44.9604 22.9117L45.4467 22.8258V21.0313L44.656 21.2461C44.2901 21.3495 43.9081 21.4035 43.5234 21.406H43.5066C43.1706 21.406 42.2732 21.1069 41.0269 20.4391C40.7047 20.2672 40.3855 20.116 40.0771 19.9836L39.8706 19.8977L40.088 19.8289C40.367 19.7412 40.6404 19.6407 40.9073 19.5281C42.3898 18.9119 43.2002 17.927 43.1874 16.7564V13.9314C43.1874 13.225 43.306 12.6552 43.5204 12.3681C43.6894 12.1223 43.9849 11.8585 44.8853 11.7906L45.4437 11.7519V10.1413L44.8942 10.0966C43.7161 10.0021 42.6952 9.74598 41.861 9.33689C41.1751 8.98366 40.3351 8.35025 39.4308 7.50457C39.2269 7.30711 38.9777 7.14908 38.6991 7.04071C38.4206 6.93234 38.119 6.87604 37.8139 6.87546C37.421 6.87746 37.0302 6.92457 36.6516 7.01555C35.4312 7.29664 34.2842 7.7786 33.2725 8.43534C32.3761 9.01718 31.6527 9.42627 31.2366 9.5887C30.3778 9.91873 28.9743 10.0941 27.1776 10.0941H23.084V11.8061L23.7758 11.7906C24.8629 11.7983 25.62 12.1206 26.2367 12.8348C26.8198 13.506 27.1035 14.3466 27.1044 15.4019V17.743L26.974 17.7035C26.9049 17.6853 26.8414 17.6539 26.7882 17.6116C26.719 17.554 26.6271 17.4397 26.6241 17.12V15.7354H24.3905V22.9194H26.6953V22.3926C26.6953 21.9758 26.7002 21.6372 26.7121 21.3853C26.7121 21.241 26.7279 21.1275 26.7338 21.0785L26.7388 21.0416L26.7724 21.0184C26.8175 20.9906 26.8663 20.9675 26.9177 20.9496L26.973 20.9307L27.1044 20.8912V27.7761L27.0264 27.7899C25.622 28.0477 24.5615 28.4705 23.7837 29.0945C22.8833 29.8121 22.4109 30.8134 22.4168 31.9865C22.4051 32.6647 22.617 33.3316 23.0276 33.9082C23.4724 34.6069 24.2354 35.0255 25.0665 35.0255H25.1001C25.3144 35.0329 25.5266 34.987 25.7119 34.8931C25.8313 34.8295 25.9297 34.7401 25.9976 34.6337C26.0655 34.5272 26.1005 34.4072 26.0993 34.2855C26.0975 34.1372 26.0335 33.9945 25.9194 33.8841C25.7702 33.7508 25.5885 33.6483 25.3877 33.5842L25.3057 33.5524C25.0171 33.4398 24.8886 33.3393 24.8649 32.8485V32.8442C24.8718 32.3947 25.027 32.0896 25.3858 31.8232C25.7811 31.5413 26.2367 31.4098 26.8307 31.4072C28.1689 31.415 29.2185 31.9642 30.1366 33.1356L30.95 34.2056L31.2267 32.9474C31.4125 32.1051 32.0006 31.3445 33.0225 30.62C34.0662 29.8835 35.0802 29.4804 36.1219 29.3867L36.6664 29.3377V27.722L36.0981 27.6928C35.1098 27.6352 34.5079 27.3868 34.1857 26.9098C33.9219 26.5274 33.7716 25.7642 33.7756 24.8154V20.8843L33.8863 20.8963C34.8311 20.9995 35.5486 21.1894 35.9618 21.4472C36.5666 21.8133 36.8631 22.5043 36.8661 23.5589V27.8457C36.873 29.6282 36.9758 30.5959 37.2238 31.1898C37.6903 32.2521 38.8308 33.1399 40.7087 33.9031C41.4805 34.2056 42.8395 34.6035 44.9861 35.1561L45.7629 35.3555V33.5937L45.4328 33.4476ZM45.0237 34.0414V34.4969L44.8971 34.4643C43.0065 33.9735 41.7019 33.5894 41.021 33.3221C39.3408 32.6423 38.3001 31.8499 37.9167 30.9646C37.7121 30.4902 37.6083 29.4417 37.6083 27.8475V23.5571C37.6083 22.2972 37.1972 21.4086 36.3877 20.9178C35.7256 20.5139 34.6769 20.2758 33.1816 20.1916L33.0383 20.1839V24.8145C33.0383 25.9318 33.2063 26.7216 33.5503 27.233C33.9683 27.8595 34.7362 28.2248 35.8402 28.3184L35.9291 28.3262V28.7559L35.8441 28.7662C34.7402 28.9046 33.6343 29.3592 32.559 30.119C31.5786 30.8117 30.9283 31.58 30.6268 32.4025L30.5695 32.558L30.4539 32.4291C29.4675 31.3265 28.2499 30.7678 26.8277 30.7678C26.0707 30.7678 25.4253 30.9569 24.9084 31.3308C24.3915 31.7046 24.1177 32.2194 24.1177 32.8459C24.1177 33.6727 24.603 34.0105 25.0072 34.148C25.0814 34.1755 25.1426 34.1996 25.1911 34.221L25.5172 34.3637L25.1525 34.3835H25.0962C24.4844 34.3835 24.009 34.1196 23.6572 33.5773C23.3184 33.0995 23.1429 32.5478 23.1512 31.9865C23.1512 29.9496 24.6475 28.7542 27.7261 28.3313L27.8388 28.3159V20.1881H27.7014C26.7941 20.2105 26.2486 20.4116 26.0341 20.8035L26.0222 20.8319C25.9768 20.9952 25.9531 21.4386 25.9491 22.1872V22.2731H25.1288V16.3783H25.8829V17.12C25.8829 17.9708 26.3998 18.4014 27.4207 18.4014H27.8427V15.4037C27.8427 14.2194 27.5027 13.2267 26.8307 12.4532C26.1221 11.6187 25.1436 11.1804 23.9201 11.1494H23.8212V10.7429H27.142C29.0791 10.7429 30.5566 10.553 31.5341 10.18C32.0114 9.99264 32.7438 9.57839 33.7084 8.95702C34.6447 8.34938 35.7062 7.90332 36.8354 7.64294C37.1457 7.56751 37.466 7.52735 37.7882 7.52347C37.9957 7.52084 38.2015 7.55727 38.3914 7.63025C38.5812 7.70323 38.7507 7.81105 38.8882 7.94632C39.8557 8.84959 40.7324 9.50706 41.4954 9.90068C42.372 10.3304 43.4226 10.6071 44.6165 10.7232L44.7034 10.7318V11.1615L44.6175 11.1709C43.7942 11.2629 43.214 11.5525 42.8928 12.0304C42.5963 12.4446 42.4481 13.0668 42.4481 13.9349V16.7556C42.4481 17.6958 41.8383 18.4134 40.5841 18.9488C39.662 19.3399 38.56 19.5917 37.3049 19.6965L37.3138 19.9398C38.2744 19.9802 39.3942 20.3343 40.6444 20.9934C41.9935 21.7059 42.9393 22.0523 43.5343 22.0523C43.89 22.0502 44.2441 22.0104 44.5888 21.9337L44.7113 21.907V22.2981L44.6352 22.3135C42.9551 22.6573 42.1032 23.5168 42.1032 24.8755V30.0554C42.1032 31.7742 43.0697 33.0892 44.9762 33.9649L45.0286 33.989L45.0237 34.0414Z"/>
</mask>
<path d="M45.4328 33.4476C43.6538 32.6483 42.8543 31.6023 42.8375 30.0562V24.8764C42.8375 24.3246 42.9976 23.919 43.3317 23.5993C43.6657 23.2795 44.2211 23.0389 44.9604 22.9117L45.4467 22.8258V21.0313L44.656 21.2461C44.2901 21.3495 43.9081 21.4035 43.5234 21.406H43.5066C43.1706 21.406 42.2732 21.1069 41.0269 20.4391C40.7047 20.2672 40.3855 20.116 40.0771 19.9836L39.8706 19.8977L40.088 19.8289C40.367 19.7412 40.6404 19.6407 40.9073 19.5281C42.3898 18.9119 43.2002 17.927 43.1874 16.7564V13.9314C43.1874 13.225 43.306 12.6552 43.5204 12.3681C43.6894 12.1223 43.9849 11.8585 44.8853 11.7906L45.4437 11.7519V10.1413L44.8942 10.0966C43.7161 10.0021 42.6952 9.74598 41.861 9.33689C41.1751 8.98366 40.3351 8.35025 39.4308 7.50457C39.2269 7.30711 38.9777 7.14908 38.6991 7.04071C38.4206 6.93234 38.119 6.87604 37.8139 6.87546C37.421 6.87746 37.0302 6.92457 36.6516 7.01555C35.4312 7.29664 34.2842 7.7786 33.2725 8.43534C32.3761 9.01718 31.6527 9.42627 31.2366 9.5887C30.3778 9.91873 28.9743 10.0941 27.1776 10.0941H23.084V11.8061L23.7758 11.7906C24.8629 11.7983 25.62 12.1206 26.2367 12.8348C26.8198 13.506 27.1035 14.3466 27.1044 15.4019V17.743L26.974 17.7035C26.9049 17.6853 26.8414 17.6539 26.7882 17.6116C26.719 17.554 26.6271 17.4397 26.6241 17.12V15.7354H24.3905V22.9194H26.6953V22.3926C26.6953 21.9758 26.7002 21.6372 26.7121 21.3853C26.7121 21.241 26.7279 21.1275 26.7338 21.0785L26.7388 21.0416L26.7724 21.0184C26.8175 20.9906 26.8663 20.9675 26.9177 20.9496L26.973 20.9307L27.1044 20.8912V27.7761L27.0264 27.7899C25.622 28.0477 24.5615 28.4705 23.7837 29.0945C22.8833 29.8121 22.4109 30.8134 22.4168 31.9865C22.4051 32.6647 22.617 33.3316 23.0276 33.9082C23.4724 34.6069 24.2354 35.0255 25.0665 35.0255H25.1001C25.3144 35.0329 25.5266 34.987 25.7119 34.8931C25.8313 34.8295 25.9297 34.7401 25.9976 34.6337C26.0655 34.5272 26.1005 34.4072 26.0993 34.2855C26.0975 34.1372 26.0335 33.9945 25.9194 33.8841C25.7702 33.7508 25.5885 33.6483 25.3877 33.5842L25.3057 33.5524C25.0171 33.4398 24.8886 33.3393 24.8649 32.8485V32.8442C24.8718 32.3947 25.027 32.0896 25.3858 31.8232C25.7811 31.5413 26.2367 31.4098 26.8307 31.4072C28.1689 31.415 29.2185 31.9642 30.1366 33.1356L30.95 34.2056L31.2267 32.9474C31.4125 32.1051 32.0006 31.3445 33.0225 30.62C34.0662 29.8835 35.0802 29.4804 36.1219 29.3867L36.6664 29.3377V27.722L36.0981 27.6928C35.1098 27.6352 34.5079 27.3868 34.1857 26.9098C33.9219 26.5274 33.7716 25.7642 33.7756 24.8154V20.8843L33.8863 20.8963C34.8311 20.9995 35.5486 21.1894 35.9618 21.4472C36.5666 21.8133 36.8631 22.5043 36.8661 23.5589V27.8457C36.873 29.6282 36.9758 30.5959 37.2238 31.1898C37.6903 32.2521 38.8308 33.1399 40.7087 33.9031C41.4805 34.2056 42.8395 34.6035 44.9861 35.1561L45.7629 35.3555V33.5937L45.4328 33.4476ZM45.0237 34.0414V34.4969L44.8971 34.4643C43.0065 33.9735 41.7019 33.5894 41.021 33.3221C39.3408 32.6423 38.3001 31.8499 37.9167 30.9646C37.7121 30.4902 37.6083 29.4417 37.6083 27.8475V23.5571C37.6083 22.2972 37.1972 21.4086 36.3877 20.9178C35.7256 20.5139 34.6769 20.2758 33.1816 20.1916L33.0383 20.1839V24.8145C33.0383 25.9318 33.2063 26.7216 33.5503 27.233C33.9683 27.8595 34.7362 28.2248 35.8402 28.3184L35.9291 28.3262V28.7559L35.8441 28.7662C34.7402 28.9046 33.6343 29.3592 32.559 30.119C31.5786 30.8117 30.9283 31.58 30.6268 32.4025L30.5695 32.558L30.4539 32.4291C29.4675 31.3265 28.2499 30.7678 26.8277 30.7678C26.0707 30.7678 25.4253 30.9569 24.9084 31.3308C24.3915 31.7046 24.1177 32.2194 24.1177 32.8459C24.1177 33.6727 24.603 34.0105 25.0072 34.148C25.0814 34.1755 25.1426 34.1996 25.1911 34.221L25.5172 34.3637L25.1525 34.3835H25.0962C24.4844 34.3835 24.009 34.1196 23.6572 33.5773C23.3184 33.0995 23.1429 32.5478 23.1512 31.9865C23.1512 29.9496 24.6475 28.7542 27.7261 28.3313L27.8388 28.3159V20.1881H27.7014C26.7941 20.2105 26.2486 20.4116 26.0341 20.8035L26.0222 20.8319C25.9768 20.9952 25.9531 21.4386 25.9491 22.1872V22.2731H25.1288V16.3783H25.8829V17.12C25.8829 17.9708 26.3998 18.4014 27.4207 18.4014H27.8427V15.4037C27.8427 14.2194 27.5027 13.2267 26.8307 12.4532C26.1221 11.6187 25.1436 11.1804 23.9201 11.1494H23.8212V10.7429H27.142C29.0791 10.7429 30.5566 10.553 31.5341 10.18C32.0114 9.99264 32.7438 9.57839 33.7084 8.95702C34.6447 8.34938 35.7062 7.90332 36.8354 7.64294C37.1457 7.56751 37.466 7.52735 37.7882 7.52347C37.9957 7.52084 38.2015 7.55727 38.3914 7.63025C38.5812 7.70323 38.7507 7.81105 38.8882 7.94632C39.8557 8.84959 40.7324 9.50706 41.4954 9.90068C42.372 10.3304 43.4226 10.6071 44.6165 10.7232L44.7034 10.7318V11.1615L44.6175 11.1709C43.7942 11.2629 43.214 11.5525 42.8928 12.0304C42.5963 12.4446 42.4481 13.0668 42.4481 13.9349V16.7556C42.4481 17.6958 41.8383 18.4134 40.5841 18.9488C39.662 19.3399 38.56 19.5917 37.3049 19.6965L37.3138 19.9398C38.2744 19.9802 39.3942 20.3343 40.6444 20.9934C41.9935 21.7059 42.9393 22.0523 43.5343 22.0523C43.89 22.0502 44.2441 22.0104 44.5888 21.9337L44.7113 21.907V22.2981L44.6352 22.3135C42.9551 22.6573 42.1032 23.5168 42.1032 24.8755V30.0554C42.1032 31.7742 43.0697 33.0892 44.9762 33.9649L45.0286 33.989L45.0237 34.0414Z" fill="#6B7280" stroke="#6B7280" stroke-width="4" mask="url(#path-37-inside-1)"/>
<mask id="path-38-inside-2" fill="white">
<path d="M36.2529 11.5724C35.6046 11.134 34.5787 10.7757 33.2029 10.5075L33.0389 10.4757V19.5428L33.1802 19.5359C34.638 19.4732 35.5225 19.4018 35.8852 19.3176C37.0287 19.0598 37.6089 18.5149 37.6089 17.7027V14.1163C37.6089 13.0205 37.1523 12.1645 36.2529 11.5724ZM36.8686 17.7904C36.8618 17.976 36.7771 18.153 36.6304 18.288C36.5009 18.4092 36.2351 18.5776 35.6984 18.6997C35.5354 18.7401 34.972 18.8045 33.8878 18.8621L33.7831 18.8673V11.2956L33.9096 11.3283C34.7388 11.5406 35.3921 11.801 35.8032 12.0803C36.5346 12.5702 36.8637 13.1975 36.8726 14.1154V17.7904H36.8686Z"/>
</mask>
<path d="M36.2529 11.5724C35.6046 11.134 34.5787 10.7757 33.2029 10.5075L33.0389 10.4757V19.5428L33.1802 19.5359C34.638 19.4732 35.5225 19.4018 35.8852 19.3176C37.0287 19.0598 37.6089 18.5149 37.6089 17.7027V14.1163C37.6089 13.0205 37.1523 12.1645 36.2529 11.5724ZM36.8686 17.7904C36.8618 17.976 36.7771 18.153 36.6304 18.288C36.5009 18.4092 36.2351 18.5776 35.6984 18.6997C35.5354 18.7401 34.972 18.8045 33.8878 18.8621L33.7831 18.8673V11.2956L33.9096 11.3283C34.7388 11.5406 35.3921 11.801 35.8032 12.0803C36.5346 12.5702 36.8637 13.1975 36.8726 14.1154V17.7904H36.8686Z" fill="#374151"/>
<path d="M36.2529 11.5724L35.6928 12.4009L35.703 12.4076L36.2529 11.5724ZM33.2029 10.5075L33.3943 9.52598L33.3932 9.52578L33.2029 10.5075ZM33.0389 10.4757L33.2292 9.49398L32.0389 9.26327V10.4757H33.0389ZM33.0389 19.5428H32.0389V20.5926L33.0875 20.5416L33.0389 19.5428ZM33.1802 19.5359L33.1372 18.5368L33.1316 18.5371L33.1802 19.5359ZM35.8852 19.3176L35.6653 18.3421L35.659 18.3435L35.8852 19.3176ZM36.8686 17.7904V16.7904H35.9045L35.8693 17.7538L36.8686 17.7904ZM36.6304 18.288L35.9532 17.5522L35.9471 17.5579L36.6304 18.288ZM35.6984 18.6997L35.4767 17.7246L35.4673 17.7267L35.458 17.729L35.6984 18.6997ZM33.8878 18.8621L33.937 19.8609L33.9409 19.8607L33.8878 18.8621ZM33.7831 18.8673H32.7831V19.9177L33.8322 19.866L33.7831 18.8673ZM33.7831 11.2956L34.0331 10.3274L32.7831 10.0047V11.2956H33.7831ZM33.9096 11.3283L33.6596 12.2965L33.6616 12.297L33.9096 11.3283ZM35.8032 12.0803L35.2412 12.9075L35.2467 12.9111L35.8032 12.0803ZM36.8726 14.1154H37.8726L37.8725 14.1057L36.8726 14.1154ZM36.8726 17.7904V18.7904H37.8726V17.7904H36.8726ZM36.813 10.7439C35.9976 10.1927 34.8143 9.80276 33.3943 9.52598L33.0116 11.489C34.3431 11.7485 35.2115 12.0754 35.6928 12.4008L36.813 10.7439ZM33.3932 9.52578L33.2292 9.49398L32.8486 11.4574L33.0127 11.4892L33.3932 9.52578ZM32.0389 10.4757V19.5428H34.0389V10.4757H32.0389ZM33.0875 20.5416L33.2288 20.5347L33.1316 18.5371L32.9903 18.544L33.0875 20.5416ZM33.2232 20.535C34.6472 20.4737 35.638 20.4016 36.1114 20.2917L35.659 18.3435C35.407 18.4021 34.6288 18.4726 33.1372 18.5368L33.2232 20.535ZM36.1052 20.2931C36.7735 20.1424 37.3942 19.8841 37.8598 19.4476C38.3552 18.9831 38.6089 18.3772 38.6089 17.7027H36.6089C36.6089 17.8404 36.5724 17.913 36.4919 17.9885C36.3816 18.0919 36.1405 18.2349 35.6653 18.3421L36.1052 20.2931ZM38.6089 17.7027V14.1163H36.6089V17.7027H38.6089ZM38.6089 14.1163C38.6089 12.6909 37.9888 11.518 36.8028 10.7371L35.703 12.4076C36.3157 12.811 36.6089 13.3501 36.6089 14.1163H38.6089ZM35.8693 17.7538C35.873 17.6518 35.9194 17.5833 35.9532 17.5522L37.3076 19.0238C37.6347 18.7227 37.8506 18.3002 37.8679 17.8269L35.8693 17.7538ZM35.9471 17.5579C35.9817 17.5254 35.8936 17.6297 35.4767 17.7246L35.9202 19.6748C36.5765 19.5255 37.0201 19.2929 37.3138 19.0181L35.9471 17.5579ZM35.458 17.729C35.471 17.7258 35.4484 17.7317 35.3643 17.7431C35.2886 17.7534 35.183 17.7656 35.0434 17.779C34.7646 17.8056 34.3675 17.8352 33.8348 17.8635L33.9409 19.8607C34.9984 19.8045 35.6649 19.7382 35.9389 19.6703L35.458 17.729ZM33.8387 17.8633L33.7339 17.8685L33.8322 19.866L33.937 19.8609L33.8387 17.8633ZM34.7831 18.8673V11.2956H32.7831V18.8673H34.7831ZM33.5331 12.2639L33.6596 12.2965L34.1596 10.36L34.0331 10.3274L33.5331 12.2639ZM33.6616 12.297C34.4458 12.4978 34.9699 12.7231 35.2412 12.9074L36.3652 11.2531C35.8142 10.8788 35.0317 10.5833 34.1576 10.3595L33.6616 12.297ZM35.2467 12.9111C35.5021 13.0822 35.6405 13.2443 35.7235 13.4024C35.8079 13.563 35.8693 13.7849 35.8726 14.1251L37.8725 14.1057C37.8669 13.5281 37.7593 12.9773 37.4941 12.4724C37.2275 11.9648 36.8356 11.5682 36.3597 11.2494L35.2467 12.9111ZM35.8726 14.1154V17.7904H37.8726V14.1154H35.8726ZM36.8726 16.7904H36.8686V18.7904H36.8726V16.7904Z" fill="#6B7280" mask="url(#path-38-inside-2)"/>
</svg>
