<svg id="Layer_1" data-name="Layer 1" xmlns="http://www.w3.org/2000/svg" xmlns:xlink="http://www.w3.org/1999/xlink" viewBox="0 0 1223 1224"><defs><clipPath id="clip-path" transform="translate(14 12)"><rect y="212.03" width="1200" height="775.95" style="fill:none"/></clipPath></defs><rect x="0.5" y="0.5" width="1222" height="1223" style="fill:#111820"/><path d="M1208-11V1211H-13V-11H1208m1-1H-14V1212H1209V-12Z" transform="translate(14 12)"/><g id="Artwork_4" data-name="Artwork 4"><g style="clip-path:url(#clip-path)"><polygon points="115.23 900.82 196.65 960.94 420.66 999.87 186.45 824.87 186.48 825.16 14 695.1 115.23 900.82" style="fill:#fff"/><polygon points="296.43 897.95 182.42 667.75 85.23 469.55 82.97 698.61 113.55 760.99 296.43 897.95" style="fill:#fff"/><polygon points="144.09 573.5 245.75 779.12 247.84 539.84 250.63 300.2 144.99 503.54 144.09 573.5" style="fill:#fff"/><polygon points="288.77 356.27 255.17 419.11 255.72 525.73 254.28 646.57 365.73 434.85 368.96 436.55 368.88 435.45 365.63 433.76 474.68 224.03 288.77 356.27" style="fill:#fff"/><polygon points="1041.53 825.26 1041.55 824.96 807.34 999.98 1031.35 961.04 1112.77 900.92 1214 695.21 1041.53 825.26" style="fill:#fff"/><polygon points="1142.77 469.65 1045.58 667.86 931.58 898.05 1114.46 761.09 1145.03 698.71 1142.77 469.65" style="fill:#fff"/><polygon points="982.25 779.22 1083.91 573.6 1083.01 503.64 977.37 300.31 980.16 539.93 982.25 779.22" style="fill:#fff"/><polygon points="862.37 433.86 859.12 435.55 859.03 436.65 862.27 434.95 973.72 646.67 972.29 525.89 972.83 419.21 939.23 356.37 753.33 224.13 862.37 433.86" style="fill:#fff"/><g style="clip-path:url(#clip-path)"><path d="M803,888.58c-31.84-16.44-46.15-38-46.44-69.8V712.19c.06-11.35,2.87-19.71,8.85-26.29,6.13-6.74,15.94-11.52,29.15-14.2l8.7-1.76V633.05l-14.1,4.43a67.72,67.72,0,0,1-20.27,3.29h-.3c-6,0-22.08-6.15-44.38-19.89-5.76-3.5-11.48-6.65-17-9.38l-3.71-1.84,3.89-1.41a149.07,149.07,0,0,0,14.67-6.19c26.54-12.69,41-33,40.81-57.05V486.94c-.06-14.53,2.12-26.25,6-32.16,3-5.06,8.3-10.49,24.41-11.9l10-.79V408.94L793.4,408c-21.08-1.95-39.34-7.22-54.28-15.64-12.27-7.26-27.3-20.3-43.49-37.71a39,39,0,0,0-29-12.93h-.07a80.12,80.12,0,0,0-20.8,2.88,177.14,177.14,0,0,0-60.46,29.22c-16.06,12-29,20.4-36.45,23.73C533.49,404.39,508.38,408,476.23,408H403v35.22l12.35-.31c19.43.16,33,6.79,44,21.49,10.42,13.82,15.5,31.11,15.52,52.84V565.4l-2.34-.81a8.92,8.92,0,0,1-3.32-1.89c-1.24-1.19-2.89-3.53-2.93-10.13V524.06h-40V671.91h41.24V661.08c0-8.59.1-15.56.3-20.73.1-3,.3-5.24.4-6.33l.08-.76.6-.46a11.54,11.54,0,0,1,2.61-1.43c.28-.12.61-.25,1-.38l2.34-.82V771.86l-1.4.29c-25.13,5.23-44.11,14-58,26.84-16.11,14.78-24.56,35.36-24.47,59.52A73.23,73.23,0,0,0,402,898.06l0,0,0,0c8,14.38,21.61,23,36.49,23h.6A20.16,20.16,0,0,0,450,918.4a14.5,14.5,0,0,0,6.92-12.51,12.49,12.49,0,0,0-3.22-8.26c-3.11-3.32-5.94-4.57-9.51-6.16l-1.46-.66c-5.17-2.32-7.47-4.39-7.89-14.48v-.1c.12-9.24,2.9-15.53,9.31-21,7-5.8,15.23-8.51,25.87-8.55,23.94.14,42.73,11.44,59.15,35.56l14.71,21.9,4.94-25.89c3.34-17.32,13.86-33,32.15-47.89,18.68-15.15,36.82-23.45,55.46-25.38l9.74-1V770.72L636,770.11c-17.59-1.18-28.46-6.3-34.23-16.12-4.72-7.86-7.4-23.57-7.34-43.09V630l2,.25c16.91,2.12,29.74,6,37.1,11.33,10.82,7.54,16.12,21.76,16.19,43.46v88.31c.12,36.69,2,56.64,6.39,68.83,8.36,21.85,28.76,40.12,62.37,55.84,13.82,6.21,38.14,14.41,76.54,25.78l13.91,4.11V891.58Zm-7.32,12.21v9.38l-2.27-.68c-33.84-10.09-57.17-18-69.36-23.5-30-14-48.69-30.3-55.56-48.51-3.66-9.76-5.52-31.34-5.52-64.14V685c0-25.93-7.35-44.21-21.85-54.32-11.84-8.32-30.6-13.21-57.37-14.94l-2.56-.17v95.3c0,23,3,39.24,9.16,49.77,7.48,12.89,21.27,20.41,41,22.34l1.59.16V792l-1.51.22c-19.77,2.84-39.55,12.2-58.8,27.83-17.55,14.26-29.18,30.07-34.59,47l-1,3.21-2.06-2.66c-17.62-22.69-39.45-34.2-64.9-34.2-13.54,0-25.1,3.9-34.34,11.59s-14.12,18.3-14.12,31.19c0,17,8.68,24,15.95,26.8,1.34.56,2.43,1,3.29,1.49l5.84,2.94-6.52.4c-.31,0-.64,0-1,0-11,0-19.38-5.43-25.76-16.59a60.83,60.83,0,0,1-9.06-32.74c0-41.92,26.78-66.52,81.88-75.23l2-.32V615.71l-2.48.06c-16.23.46-26,4.6-29.83,12.66l-.21.6c-.81,3.35-1.24,12.48-1.3,27.89v1.76H439.63V537.3h13.49v15.27c0,17.5,9.26,26.37,27.53,26.37h7.56v-61.7c0-24.38-6.1-44.8-18.13-60.71-12.68-17.18-30.19-26.2-52.08-26.84l-1.71-.05v-8.41h59.42c34.66,0,61.1-3.9,78.6-11.57,8.55-3.87,21.65-12.34,38.91-25.18a163.92,163.92,0,0,1,56-27.05A67,67,0,0,1,666.23,355a25.74,25.74,0,0,1,19.68,8.69c17.32,18.6,33,32.13,46.67,40.23,15.68,8.84,34.48,14.54,55.84,16.93L790,421v8.86l-1.55.2c-14.73,1.89-25.12,7.85-30.86,17.7-5.37,8.52-8,21.32-8,39.19v58c0,19.37-10.91,34.13-33.35,45.15-16.5,8.05-36.23,13.22-58.68,15.38l.16,5c17.19.82,37.22,8.11,59.59,21.68C741.5,646.88,758.42,654,769.06,654a77.48,77.48,0,0,0,18.74-2.39l2.2-.55v8l-1.37.32c-30.07,7.06-45.32,24.8-45.32,52.73V818.76c0,35.37,17.3,62.45,51.42,80.47l.94.5Z" transform="translate(14 12)" style="fill:#fff"/><path d="M638.7,438.39c-11.61-9-30-16.39-54.59-21.91l-2.93-.66V602.41l2.52-.12c26.09-1.29,41.93-2.76,48.42-4.5,20.47-5.34,30.84-16.52,30.84-33.24v-73.8c0-22.55-8.16-40.16-24.26-52.36m11,127.89h-.07a15.69,15.69,0,0,1-4.25,10.25c-2.32,2.49-7.09,6-16.69,8.47-2.92.83-13,2.15-32.4,3.34l-1.88.12V432.7l2.27.67c14.83,4.38,26.55,9.73,33.88,15.48,13.09,10.08,19,23,19.14,41.88v75.55Z" transform="translate(14 12)" style="fill:#fff"/></g></g></g></svg>